<?xml version="1.0" encoding="utf-8"?>
<!-- Generator: Adobe Illustrator 24.3.0, SVG Export Plug-In . SVG Version: 6.00 Build 0)  -->
<svg version="1.1" xmlns="http://www.w3.org/2000/svg" xmlns:xlink="http://www.w3.org/1999/xlink" x="0px" y="0px"
	 viewBox="0 0 363.95 80.14" style="enable-background:new 0 0 363.95 80.14;" xml:space="preserve">
<g id="Layer_1">
</g>
<g id="Layer_2">
	<g>
		<g>
			<path d="M7.42,47.73c1.51,6.7,5.98,10.66,14.26,10.66c9.22,0,12.75-4.61,12.75-10.08c0-5.69-2.52-9.22-13.61-11.95
				C10.15,33.69,5.54,30.24,5.54,22.96c0-6.62,4.82-12.82,15.63-12.82c11.09,0,15.77,6.77,16.42,12.89h-4.03
				c-1.15-5.4-4.68-9.29-12.6-9.29c-7.27,0-11.23,3.38-11.23,9c0,5.54,3.31,7.7,12.6,10.01c14.19,3.53,16.27,9.22,16.27,15.27
				c0,7.42-5.4,13.83-17.07,13.83c-12.6,0-17.21-7.34-18.15-14.11H7.42z"/>
			<path d="M72.87,54.43c0,3.17,0.29,5.69,0.5,6.84h-3.46c-0.29-0.86-0.5-2.45-0.65-5.54c-1.22,2.66-4.39,6.41-11.81,6.41
				c-8.35,0-11.95-5.4-11.95-10.8c0-7.92,6.12-11.52,16.92-11.52c3.02,0,5.4,0,6.84,0v-3.67c0-3.6-1.08-8.42-9.29-8.42
				c-7.27,0-8.35,3.82-9.14,6.77h-3.6c0.43-3.96,2.88-10.08,12.82-10.08c8.21,0,12.82,3.46,12.82,11.38V54.43z M69.34,42.91
				c-1.37,0-4.68,0-7.06,0c-7.99,0-12.96,2.09-12.96,8.28c0,4.54,3.24,7.63,8.28,7.63c10.3,0,11.74-6.84,11.74-14.62V42.91z"/>
			<path d="M84.74,35.06c0-6.05-0.07-8.64-0.07-9.79h3.53c0.07,1.15,0.14,3.46,0.14,8.06c2.09-5.4,6.7-8.64,12.53-8.93v3.89
				c-7.49,0.5-12.53,5.69-12.53,14.26v18.72h-3.6V35.06z"/>
			<path d="M132.77,54.43c0,3.17,0.29,5.69,0.5,6.84h-3.46c-0.29-0.86-0.5-2.45-0.65-5.54c-1.22,2.66-4.39,6.41-11.81,6.41
				c-8.35,0-11.95-5.4-11.95-10.8c0-7.92,6.12-11.52,16.92-11.52c3.02,0,5.4,0,6.84,0v-3.67c0-3.6-1.08-8.42-9.29-8.42
				c-7.27,0-8.35,3.82-9.14,6.77h-3.6c0.43-3.96,2.88-10.08,12.82-10.08c8.21,0,12.82,3.46,12.82,11.38V54.43z M129.24,42.91
				c-1.37,0-4.68,0-7.06,0c-7.99,0-12.96,2.09-12.96,8.28c0,4.54,3.24,7.63,8.28,7.63c10.3,0,11.74-6.84,11.74-14.62V42.91z"/>
			<path d="M148.25,8.2v23.11c2.02-3.74,5.54-6.91,11.88-6.91c5.11,0,12.17,2.59,12.17,13.97v22.9h-3.6V39.09
				c0-7.13-3.24-11.16-9.22-11.16c-7.13,0-11.23,4.39-11.23,13.25v20.09h-3.6V8.2H148.25z"/>
			<path d="M203.97,10.87h17.57c9.65,0,14.83,5.11,14.83,12.38c0,5.98-3.6,9.87-7.78,11.02c3.6,1.01,9.58,4.54,9.58,12.46
				c0,10.08-7.56,14.55-16.35,14.55h-17.86V10.87z M220.25,32.54c8.71,0,12.02-3.24,12.02-9.07c0-4.97-3.46-9-10.51-9h-13.97v18.07
				H220.25z M207.79,57.67h14.19c6.62,0,12.17-3.31,12.17-10.73c0-6.41-4.1-10.8-14.26-10.8h-12.1V57.67z"/>
			<path d="M247.96,61.27V8.2h3.6v53.07H247.96z"/>
			<path d="M292.53,43.2c0,10.01-5.54,18.94-16.27,18.94c-9.72,0-15.77-7.99-15.77-18.87c0-10.3,5.69-18.87,16.13-18.87
				C286.2,24.4,292.53,31.89,292.53,43.2z M264.31,43.27c0,8.57,4.61,15.48,12.24,15.48c7.78,0,12.17-6.41,12.17-15.48
				c0-8.5-4.32-15.48-12.31-15.48C268.2,27.79,264.31,34.63,264.31,43.27z"/>
			<path d="M327.96,50.69c-1.73,6.34-5.9,11.45-13.97,11.45c-9,0-15.41-6.7-15.41-18.72c0-9.86,5.26-19.01,15.84-19.01
				c9.14,0,12.89,6.48,13.54,11.52h-3.67c-1.08-4.18-3.82-8.14-9.94-8.14c-7.63,0-11.95,6.48-11.95,15.48
				c0,8.57,4.03,15.48,11.59,15.48c5.26,0,8.42-2.66,10.3-8.06H327.96z"/>
			<path d="M339.91,43.85c3.31-3.53,13.39-13.75,18.22-18.58h4.61L348.48,39.6l16.06,21.67h-4.46L345.88,41.9l-5.98,5.76v13.61h-3.6
				V8.2h3.6V43.85z"/>
		</g>
	</g>
</g>
</svg>
