<?xml version="1.0" encoding="utf-8"?>
<!-- Generator: Adobe Illustrator 24.3.0, SVG Export Plug-In . SVG Version: 6.00 Build 0)  -->
<svg version="1.1" xmlns="http://www.w3.org/2000/svg" xmlns:xlink="http://www.w3.org/1999/xlink" x="0px" y="0px"
	 viewBox="0 0 751.06 751.06" style="enable-background:new 0 0 751.06 751.06;" xml:space="preserve">
<style type="text/css">
	.st0{fill:none;stroke:#000000;stroke-width:20;stroke-miterlimit:10;}
</style>
<g id="Box">
	
		<rect x="168.28" y="168.28" transform="matrix(0.7071 0.7071 -0.7071 0.7071 374.4379 -155.0973)" class="st0" width="412.32" height="412.32"/>
</g>
<g id="S">
	<g>
		<g>
			<path d="M291.54,445.61c9.03,39.97,35.68,63.61,85.1,63.61c55.02,0,76.08-27.51,76.08-60.18c0-33.96-15.04-55.02-81.24-71.35
				c-63.61-15.9-91.12-36.54-91.12-79.95c0-39.54,28.8-76.51,93.27-76.51c66.19,0,94.13,40.4,98,76.94h-24.07
				c-6.88-32.24-27.94-55.45-75.22-55.45c-43.41,0-67.05,20.2-67.05,53.73c0,33.1,19.77,45.99,75.22,59.75
				c84.67,21.06,97.14,55.02,97.14,91.12c0,44.27-32.24,82.53-101.87,82.53c-75.22,0-102.73-43.84-108.32-84.25H291.54z"/>
		</g>
	</g>
</g>
<g id="Line">
	<g>
		<g>
			<path d="M432.88,272.59l-100.16,216l-21.35-9.9l100.16-216L432.88,272.59z"/>
		</g>
	</g>
	<path d="M338.73,475.73"/>
	<g>
		<path d="M330.14,492.65c-3.14-1.71-6.17-3.67-9.01-5.82c-2.65-2-5.17-4.2-7.53-6.56l18.46,8.56L330.14,492.65z"/>
		<path d="M316.11,481.99l5.53,2.56l9.74,4.52l-1.45,2.9c-2.95-1.64-5.81-3.5-8.5-5.53C319.59,485.04,317.81,483.56,316.11,481.99
			 M311.38,478.69c2.46,2.64,5.58,5.61,9.45,8.54c3.39,2.57,6.65,4.56,9.53,6.11c0.79-1.58,1.58-3.16,2.37-4.74
			C325.62,485.29,318.5,481.99,311.38,478.69L311.38,478.69z"/>
	</g>
	<g>
		<path d="M412.19,262.48l1.91-3.82c3.14,1.71,6.17,3.67,9.01,5.82c2.65,2,5.17,4.2,7.53,6.56L412.19,262.48z"/>
		<path d="M414.32,259.35c2.95,1.64,5.81,3.5,8.5,5.53c1.84,1.39,3.62,2.88,5.32,4.44l-15.27-7.08L414.32,259.35 M413.89,257.97
			c-0.79,1.58-1.58,3.16-2.37,4.74c7.12,3.3,14.23,6.6,21.35,9.9c-2.46-2.64-5.58-5.61-9.45-8.54
			C420.03,261.51,416.78,259.52,413.89,257.97L413.89,257.97z"/>
	</g>
</g>
</svg>
